<svg width="1440" height="868" viewBox="0 0 1440 868" fill="none" xmlns="http://www.w3.org/2000/svg">
<path d="M-196.368 219.097C-181.481 153.084 -112.304 114.869 -48.4975 137.409L829.322 447.508C858.695 457.884 891.048 455.674 918.738 441.4L1180.63 306.393C1293.82 248.045 1402.05 392.382 1314.32 484.683L996.12 819.456C967.67 849.388 925.159 861.417 885.244 850.83L297.701 694.991C284.022 691.363 269.783 690.336 255.726 691.965L-159.706 740.097C-237.052 749.058 -300.073 678.944 -282.943 602.988L-196.368 219.097Z" fill="url(#paint0_linear_2817_2)" fill-opacity="0.06"/>
<g style="mix-blend-mode:multiply">
<path d="M998.091 273.699C1007.43 186.864 1107.54 142.993 1177.71 194.985L1372.64 339.402C1402.5 361.525 1444.22 357.618 1469.46 330.336V330.336C1525.58 269.66 1623.37 334.569 1589.26 409.851L1508.51 588.031C1480.72 649.341 1403.06 668.768 1349.68 627.764L1243.04 545.849C1211.3 521.465 1168.48 517.166 1132.52 534.751V534.751C1058.01 571.192 972.545 511.266 981.413 428.792L998.091 273.699Z" fill="url(#paint1_linear_2817_2)"/>
</g>
<defs>
<linearGradient id="paint0_linear_2817_2" x1="-464.396" y1="146.09" x2="-464.396" y2="1175.22" gradientUnits="userSpaceOnUse">
<stop stop-color="#0EDEEB"/>
<stop offset="1" stop-color="#8E85FA"/>
</linearGradient>
<linearGradient id="paint1_linear_2817_2" x1="904.064" y1="119.161" x2="904.064" y2="958.593" gradientUnits="userSpaceOnUse">
<stop stop-color="#0EDEEB"/>
<stop offset="1" stop-color="#8E85FA"/>
</linearGradient>
</defs>
</svg>
