<svg width="144" height="159" viewBox="0 0 144 159" fill="none" xmlns="http://www.w3.org/2000/svg">
<path d="M26.7615 155.179L30.6165 145.174H28.1865L25.4265 152.869L22.6515 145.174H20.2215L24.0915 155.179H26.7615ZM32.4404 147.154C33.0704 147.154 33.5804 146.644 33.5804 146.014C33.5804 145.384 33.0704 144.889 32.4404 144.889C31.8254 144.889 31.3004 145.384 31.3004 146.014C31.3004 146.644 31.8254 147.154 32.4404 147.154ZM33.4004 155.179V147.934H31.4954V155.179H33.4004ZM42.1893 155.179V145.174H40.2693V148.864C39.6993 148.129 38.8893 147.754 38.0343 147.754C36.1893 147.754 34.8243 149.194 34.8243 151.564C34.8243 153.979 36.2043 155.359 38.0343 155.359C38.9043 155.359 39.6993 154.969 40.2693 154.249V155.179H42.1893ZM38.6193 153.664C37.5393 153.664 36.7893 152.809 36.7893 151.564C36.7893 150.304 37.5393 149.449 38.6193 149.449C39.2643 149.449 39.9543 149.794 40.2693 150.274V152.839C39.9543 153.319 39.2643 153.664 38.6193 153.664ZM47.4834 155.359C48.6084 155.359 49.7484 155.014 50.4684 154.354L49.6284 153.124C49.1634 153.574 48.3084 153.844 47.6934 153.844C46.4634 153.844 45.7284 153.079 45.6084 152.164H50.9934V151.744C50.9934 149.374 49.5234 147.754 47.3634 147.754C45.1584 147.754 43.6134 149.449 43.6134 151.549C43.6134 153.874 45.2784 155.359 47.4834 155.359ZM49.1484 150.874H45.5784C45.6684 150.154 46.1784 149.269 47.3634 149.269C48.6234 149.269 49.1034 150.184 49.1484 150.874ZM55.7294 155.359C58.1294 155.359 59.5694 153.619 59.5694 151.549C59.5694 149.494 58.1294 147.754 55.7294 147.754C53.3444 147.754 51.9044 149.494 51.9044 151.549C51.9044 153.619 53.3444 155.359 55.7294 155.359ZM55.7294 153.664C54.5444 153.664 53.8844 152.689 53.8844 151.549C53.8844 150.424 54.5444 149.449 55.7294 149.449C56.9144 149.449 57.5894 150.424 57.5894 151.549C57.5894 152.689 56.9144 153.664 55.7294 153.664ZM75.7106 155.179V145.174H72.7106L70.2806 151.219L67.8506 145.174H64.8656V155.179H66.9956V148.174L69.8156 155.179H70.7456L73.5656 148.174V155.179H75.7106ZM81.0576 155.359C82.1826 155.359 83.3226 155.014 84.0426 154.354L83.2026 153.124C82.7376 153.574 81.8826 153.844 81.2676 153.844C80.0376 153.844 79.3026 153.079 79.1826 152.164H84.5676V151.744C84.5676 149.374 83.0976 147.754 80.9376 147.754C78.7326 147.754 77.1876 149.449 77.1876 151.549C77.1876 153.874 78.8526 155.359 81.0576 155.359ZM82.7226 150.874H79.1526C79.2426 150.154 79.7526 149.269 80.9376 149.269C82.1976 149.269 82.6776 150.184 82.7226 150.874ZM88.5536 155.359C90.5636 155.359 91.6886 154.354 91.6886 153.034C91.6886 150.109 87.3986 151.009 87.3986 149.929C87.3986 149.524 87.8486 149.209 88.5386 149.209C89.4236 149.209 90.2486 149.584 90.6836 150.049L91.4486 148.744C90.7286 148.174 89.7536 147.754 88.5236 147.754C86.6186 147.754 85.5536 148.819 85.5536 150.034C85.5536 152.884 89.8586 151.909 89.8586 153.109C89.8586 153.559 89.4686 153.889 88.6436 153.889C87.7436 153.889 86.6636 153.394 86.1386 152.899L85.3136 154.234C86.0786 154.939 87.2936 155.359 88.5536 155.359ZM95.702 155.359C97.712 155.359 98.837 154.354 98.837 153.034C98.837 150.109 94.547 151.009 94.547 149.929C94.547 149.524 94.997 149.209 95.687 149.209C96.572 149.209 97.397 149.584 97.832 150.049L98.597 148.744C97.877 148.174 96.902 147.754 95.672 147.754C93.767 147.754 92.702 148.819 92.702 150.034C92.702 152.884 97.007 151.909 97.007 153.109C97.007 153.559 96.617 153.889 95.792 153.889C94.892 153.889 93.812 153.394 93.287 152.899L92.462 154.234C93.227 154.939 94.442 155.359 95.702 155.359ZM106.495 155.179V150.499C106.495 148.414 104.98 147.754 103.33 147.754C102.19 147.754 101.05 148.114 100.165 148.894L100.885 150.169C101.5 149.599 102.22 149.314 103 149.314C103.96 149.314 104.59 149.794 104.59 150.529V151.504C104.11 150.934 103.255 150.619 102.295 150.619C101.14 150.619 99.7755 151.264 99.7755 152.959C99.7755 154.579 101.14 155.359 102.295 155.359C103.24 155.359 104.095 155.014 104.59 154.429V155.179H106.495ZM103.06 154.069C102.31 154.069 101.695 153.679 101.695 153.004C101.695 152.299 102.31 151.909 103.06 151.909C103.675 151.909 104.275 152.119 104.59 152.539V153.439C104.275 153.859 103.675 154.069 103.06 154.069ZM111.355 158.119C113.14 158.119 115.27 157.444 115.27 154.684V147.934H113.35V148.864C112.765 148.129 111.985 147.754 111.115 147.754C109.285 147.754 107.92 149.074 107.92 151.444C107.92 153.859 109.3 155.134 111.115 155.134C112 155.134 112.78 154.714 113.35 153.994V154.729C113.35 156.154 112.27 156.559 111.355 156.559C110.44 156.559 109.675 156.304 109.09 155.659L108.235 157.039C109.15 157.834 110.11 158.119 111.355 158.119ZM111.715 153.439C110.635 153.439 109.885 152.689 109.885 151.444C109.885 150.199 110.635 149.449 111.715 149.449C112.345 149.449 113.035 149.794 113.35 150.274V152.614C113.035 153.079 112.345 153.439 111.715 153.439ZM120.564 155.359C121.689 155.359 122.829 155.014 123.549 154.354L122.709 153.124C122.244 153.574 121.389 153.844 120.774 153.844C119.544 153.844 118.809 153.079 118.689 152.164H124.074V151.744C124.074 149.374 122.604 147.754 120.444 147.754C118.239 147.754 116.694 149.449 116.694 151.549C116.694 153.874 118.359 155.359 120.564 155.359ZM122.229 150.874H118.659C118.749 150.154 119.259 149.269 120.444 149.269C121.704 149.269 122.184 150.184 122.229 150.874Z" fill="white"/>
<path d="M47.8033 28.9596C61.0812 15.6818 82.6088 15.6818 95.8866 28.9596L114.73 47.8033C128.008 61.0811 128.008 82.6087 114.73 95.8866L95.8867 114.73C82.6088 128.008 61.0812 128.008 47.8034 114.73L28.9597 95.8866C15.6819 82.6088 15.6818 61.0811 28.9597 47.8033L47.8033 28.9596Z" fill="#FCFCFC"/>
<path d="M68.7466 35.5768C87.3157 32.7863 104.631 45.5775 107.422 64.1467L108.113 68.7466C110.903 87.3157 98.1122 104.631 79.543 107.422L74.9431 108.113C56.3739 110.903 39.0585 98.1122 36.268 79.543L35.5768 74.9431C32.7863 56.3739 45.5775 39.0585 64.1467 36.268L68.7466 35.5768Z" fill="#59CDFF"/>
<path d="M90.2408 63.2208C89.2748 62.6696 88.0568 62.6272 87.0908 63.2208L82.5128 65.8496V64.7896C82.5128 62.6272 80.7488 60.8464 78.6068 60.8464H55.8008C53.6588 60.8464 51.8948 62.6272 51.8948 64.7896V79.9264C51.8948 82.0888 53.6588 83.8696 55.8008 83.8696H78.6068C80.7488 83.8696 82.5128 82.0888 82.5128 79.9264V78.8664L87.0908 81.4952C87.5948 81.792 88.1408 81.9192 88.6448 81.9192C89.1908 81.9192 89.7368 81.792 90.1988 81.4952C91.1648 80.9016 91.7528 79.884 91.7528 78.7392V65.9768C91.7948 64.832 91.2068 63.8144 90.2408 63.2208ZM79.7828 79.9688C79.7828 80.6048 79.2368 81.156 78.6068 81.156H55.8008C55.1708 81.156 54.6248 80.6048 54.6248 79.9688V64.7896C54.6248 64.1536 55.1708 63.6024 55.8008 63.6024H78.6068C79.2368 63.6024 79.7828 64.1536 79.7828 64.7896V79.9688ZM89.0648 78.7816C89.0648 78.9936 88.9388 79.0784 88.8548 79.1632C88.7708 79.2056 88.6448 79.248 88.4348 79.1632L82.5128 75.7288V69.072L88.4348 65.5952C88.6028 65.5104 88.7708 65.5528 88.8548 65.5952C88.9388 65.6376 89.0648 65.7648 89.0648 65.9768V78.7816Z" fill="white"/>
<path d="M71.6768 71.1072L65.1668 67.2488C64.2008 66.6552 62.9828 67.376 62.9828 68.5208V76.2376C62.9828 77.3824 64.2008 78.0608 65.1668 77.5096L71.6768 73.6512C72.6428 73.0576 72.6428 71.7008 71.6768 71.1072Z" fill="white"/>
</svg>
