<svg width="175" height="159" viewBox="0 0 175 159" fill="none" xmlns="http://www.w3.org/2000/svg">
<path d="M17.473 155.358V151.803H20.023C22.183 151.803 23.383 150.318 23.383 148.578C23.383 146.823 22.198 145.353 20.023 145.353H15.343V155.358H17.473ZM19.738 149.928H17.473V147.228H19.738C20.578 147.228 21.208 147.738 21.208 148.578C21.208 149.403 20.578 149.928 19.738 149.928ZM26.5634 155.358V150.573C26.8784 150.108 27.7184 149.748 28.3484 149.748C28.5584 149.748 28.7384 149.763 28.8734 149.793V147.933C27.9734 147.933 27.0734 148.458 26.5634 149.103V148.113H24.6584V155.358H26.5634ZM33.4687 155.538C34.5937 155.538 35.7337 155.193 36.4537 154.533L35.6137 153.303C35.1487 153.753 34.2937 154.023 33.6787 154.023C32.4487 154.023 31.7137 153.258 31.5937 152.343H36.9787V151.923C36.9787 149.553 35.5087 147.933 33.3487 147.933C31.1437 147.933 29.5987 149.628 29.5987 151.728C29.5987 154.053 31.2637 155.538 33.4687 155.538ZM35.1337 151.053H31.5637C31.6537 150.333 32.1637 149.448 33.3487 149.448C34.6087 149.448 35.0887 150.363 35.1337 151.053ZM40.9647 155.538C42.9747 155.538 44.0997 154.533 44.0997 153.213C44.0997 150.288 39.8097 151.188 39.8097 150.108C39.8097 149.703 40.2597 149.388 40.9497 149.388C41.8347 149.388 42.6597 149.763 43.0947 150.228L43.8597 148.923C43.1397 148.353 42.1647 147.933 40.9347 147.933C39.0297 147.933 37.9647 148.998 37.9647 150.213C37.9647 153.063 42.2697 152.088 42.2697 153.288C42.2697 153.738 41.8797 154.068 41.0547 154.068C40.1547 154.068 39.0747 153.573 38.5497 153.078L37.7247 154.413C38.4897 155.118 39.7047 155.538 40.9647 155.538ZM48.8781 155.538C50.3631 155.538 51.2631 154.893 51.7431 154.218L50.4981 153.063C50.1531 153.543 49.6281 153.843 48.9681 153.843C47.8131 153.843 47.0031 152.988 47.0031 151.728C47.0031 150.468 47.8131 149.628 48.9681 149.628C49.6281 149.628 50.1531 149.898 50.4981 150.408L51.7431 149.238C51.2631 148.578 50.3631 147.933 48.8781 147.933C46.6431 147.933 45.0381 149.508 45.0381 151.728C45.0381 153.963 46.6431 155.538 48.8781 155.538ZM54.8935 155.358V150.573C55.2085 150.108 56.0485 149.748 56.6785 149.748C56.8885 149.748 57.0685 149.763 57.2035 149.793V147.933C56.3035 147.933 55.4035 148.458 54.8935 149.103V148.113H52.9885V155.358H54.8935ZM59.3387 147.333C59.9687 147.333 60.4787 146.823 60.4787 146.193C60.4787 145.563 59.9687 145.068 59.3387 145.068C58.7237 145.068 58.1987 145.563 58.1987 146.193C58.1987 146.823 58.7237 147.333 59.3387 147.333ZM60.2987 155.358V148.113H58.3937V155.358H60.2987ZM66.3277 155.538C68.1877 155.538 69.5377 154.143 69.5377 151.728C69.5377 149.313 68.1877 147.933 66.3277 147.933C65.4427 147.933 64.6477 148.323 64.0927 149.028V148.113H62.1877V158.118H64.0927V154.428C64.6777 155.178 65.4727 155.538 66.3277 155.538ZM65.7277 153.843C65.1127 153.843 64.4077 153.468 64.0927 153.018V150.453C64.4077 149.988 65.1127 149.628 65.7277 149.628C66.8227 149.628 67.5577 150.483 67.5577 151.728C67.5577 152.988 66.8227 153.843 65.7277 153.843ZM73.3628 155.538C74.1578 155.538 74.6678 155.328 74.9528 155.073L74.5478 153.633C74.4428 153.738 74.1728 153.843 73.8878 153.843C73.4678 153.843 73.2278 153.498 73.2278 153.048V149.778H74.6978V148.113H73.2278V146.133H71.3078V148.113H70.1078V149.778H71.3078V153.558C71.3078 154.848 72.0278 155.538 73.3628 155.538ZM76.9462 147.333C77.5762 147.333 78.0862 146.823 78.0862 146.193C78.0862 145.563 77.5762 145.068 76.9462 145.068C76.3312 145.068 75.8062 145.563 75.8062 146.193C75.8062 146.823 76.3312 147.333 76.9462 147.333ZM77.9062 155.358V148.113H76.0012V155.358H77.9062ZM83.1551 155.538C85.5551 155.538 86.9951 153.798 86.9951 151.728C86.9951 149.673 85.5551 147.933 83.1551 147.933C80.7701 147.933 79.3301 149.673 79.3301 151.728C79.3301 153.798 80.7701 155.538 83.1551 155.538ZM83.1551 153.843C81.9701 153.843 81.3101 152.868 81.3101 151.728C81.3101 150.603 81.9701 149.628 83.1551 149.628C84.3401 149.628 85.0151 150.603 85.0151 151.728C85.0151 152.868 84.3401 153.843 83.1551 153.843ZM95.2034 155.358V150.243C95.2034 148.833 94.4384 147.933 92.8484 147.933C91.6634 147.933 90.7784 148.503 90.3134 149.058V148.113H88.4084V155.358H90.3134V150.483C90.6284 150.048 91.2134 149.628 91.9634 149.628C92.7734 149.628 93.2984 149.973 93.2984 150.978V155.358H95.2034ZM111.823 155.358V145.353H108.823L106.393 151.398L103.963 145.353H100.978V155.358H103.108V148.353L105.928 155.358H106.858L109.678 148.353V155.358H111.823ZM117.17 155.538C118.295 155.538 119.435 155.193 120.155 154.533L119.315 153.303C118.85 153.753 117.995 154.023 117.38 154.023C116.15 154.023 115.415 153.258 115.295 152.343H120.68V151.923C120.68 149.553 119.21 147.933 117.05 147.933C114.845 147.933 113.3 149.628 113.3 151.728C113.3 154.053 114.965 155.538 117.17 155.538ZM118.835 151.053H115.265C115.355 150.333 115.865 149.448 117.05 149.448C118.31 149.448 118.79 150.363 118.835 151.053ZM124.666 155.538C126.676 155.538 127.801 154.533 127.801 153.213C127.801 150.288 123.511 151.188 123.511 150.108C123.511 149.703 123.961 149.388 124.651 149.388C125.536 149.388 126.361 149.763 126.796 150.228L127.561 148.923C126.841 148.353 125.866 147.933 124.636 147.933C122.731 147.933 121.666 148.998 121.666 150.213C121.666 153.063 125.971 152.088 125.971 153.288C125.971 153.738 125.581 154.068 124.756 154.068C123.856 154.068 122.776 153.573 122.251 153.078L121.426 154.413C122.191 155.118 123.406 155.538 124.666 155.538ZM131.814 155.538C133.824 155.538 134.949 154.533 134.949 153.213C134.949 150.288 130.659 151.188 130.659 150.108C130.659 149.703 131.109 149.388 131.799 149.388C132.684 149.388 133.509 149.763 133.944 150.228L134.709 148.923C133.989 148.353 133.014 147.933 131.784 147.933C129.879 147.933 128.814 148.998 128.814 150.213C128.814 153.063 133.119 152.088 133.119 153.288C133.119 153.738 132.729 154.068 131.904 154.068C131.004 154.068 129.924 153.573 129.399 153.078L128.574 154.413C129.339 155.118 130.554 155.538 131.814 155.538ZM142.608 155.358V150.678C142.608 148.593 141.093 147.933 139.443 147.933C138.303 147.933 137.163 148.293 136.278 149.073L136.998 150.348C137.613 149.778 138.333 149.493 139.113 149.493C140.073 149.493 140.703 149.973 140.703 150.708V151.683C140.223 151.113 139.368 150.798 138.408 150.798C137.253 150.798 135.888 151.443 135.888 153.138C135.888 154.758 137.253 155.538 138.408 155.538C139.353 155.538 140.208 155.193 140.703 154.608V155.358H142.608ZM139.173 154.248C138.423 154.248 137.808 153.858 137.808 153.183C137.808 152.478 138.423 152.088 139.173 152.088C139.788 152.088 140.388 152.298 140.703 152.718V153.618C140.388 154.038 139.788 154.248 139.173 154.248ZM147.467 158.298C149.252 158.298 151.382 157.623 151.382 154.863V148.113H149.462V149.043C148.877 148.308 148.097 147.933 147.227 147.933C145.397 147.933 144.032 149.253 144.032 151.623C144.032 154.038 145.412 155.313 147.227 155.313C148.112 155.313 148.892 154.893 149.462 154.173V154.908C149.462 156.333 148.382 156.738 147.467 156.738C146.552 156.738 145.787 156.483 145.202 155.838L144.347 157.218C145.262 158.013 146.222 158.298 147.467 158.298ZM147.827 153.618C146.747 153.618 145.997 152.868 145.997 151.623C145.997 150.378 146.747 149.628 147.827 149.628C148.457 149.628 149.147 149.973 149.462 150.453V152.793C149.147 153.258 148.457 153.618 147.827 153.618ZM156.677 155.538C157.802 155.538 158.942 155.193 159.662 154.533L158.822 153.303C158.357 153.753 157.502 154.023 156.887 154.023C155.657 154.023 154.922 153.258 154.802 152.343H160.187V151.923C160.187 149.553 158.717 147.933 156.557 147.933C154.352 147.933 152.807 149.628 152.807 151.728C152.807 154.053 154.472 155.538 156.677 155.538ZM158.342 151.053H154.772C154.862 150.333 155.372 149.448 156.557 149.448C157.817 149.448 158.297 150.363 158.342 151.053Z" fill="white"/>
<path d="M59.774 28.9596C73.0518 15.6818 94.5794 15.6818 107.857 28.9596L126.701 47.8033C139.979 61.0811 139.979 82.6087 126.701 95.8866L107.857 114.73C94.5795 128.008 73.0518 128.008 59.774 114.73L40.9303 95.8866C27.6525 82.6088 27.6525 61.0811 40.9303 47.8033L59.774 28.9596Z" fill="white"/>
<path d="M80.7172 35.5768C99.2864 32.7863 116.602 45.5775 119.392 64.1467L120.084 68.7466C122.874 87.3157 110.083 104.631 91.5137 107.422L86.9138 108.113C68.3446 110.903 51.0292 98.1122 48.2387 79.543L47.5474 74.9431C44.757 56.3739 57.5481 39.0585 76.1173 36.268L80.7172 35.5768Z" fill="#4096FC"/>
<path d="M87.9444 59.0044H79.6871C78.1579 59.0044 76.914 57.662 76.914 56.0115C76.914 54.3614 78.1579 53.0193 79.6871 53.0193H87.9444C89.4733 53.0193 90.7168 54.3614 90.7168 56.0115C90.7168 57.6616 89.4733 59.0044 87.9444 59.0044ZM79.6871 54.4287C78.9394 54.4287 78.3307 55.139 78.3307 56.0115C78.3307 56.8848 78.9394 57.595 79.6871 57.595H87.9444C88.6922 57.595 89.3001 56.8848 89.3001 56.0115C89.3001 55.1386 88.6918 54.4287 87.9444 54.4287H79.6871Z" fill="white"/>
<path d="M93.3741 86.1391H74.2566C72.1983 86.1391 70.5233 84.4739 70.5233 82.4264V59.0201C70.5233 56.9729 72.1979 55.3074 74.2566 55.3074H78.021V56.7168H74.2566C72.9794 56.7168 71.9404 57.7502 71.9404 59.0201V82.4264C71.9404 83.696 72.9797 84.7297 74.2566 84.7297H93.3741C94.6514 84.7297 95.6911 83.696 95.6911 82.4264V59.0201C95.6911 57.7502 94.6514 56.7168 93.3741 56.7168H89.6098V55.3074H93.3741C95.4328 55.3074 97.1078 56.9729 97.1078 59.0201V82.4264C97.1078 84.4739 95.4328 86.1391 93.3741 86.1391Z" fill="white"/>
<path d="M91.394 69.2915H76.2369C75.8458 69.2915 75.5284 69.6069 75.5284 69.9962C75.5284 70.3859 75.8455 70.7009 76.2369 70.7009H91.3947C91.7862 70.7009 92.1029 70.3859 92.1029 69.9962C92.1029 69.6072 91.7858 69.2915 91.394 69.2915Z" fill="white"/>
<path d="M91.394 74.0608H76.2369C75.8458 74.0608 75.5284 74.3762 75.5284 74.7655C75.5284 75.1549 75.8455 75.4699 76.2369 75.4699H91.3947C91.7862 75.4699 92.1029 75.1549 92.1029 74.7655C92.1029 74.3762 91.7858 74.0608 91.394 74.0608Z" fill="white"/>
<path d="M91.394 78.8303H76.2369C75.8458 78.8303 75.5284 79.1457 75.5284 79.5354C75.5284 79.9244 75.8455 80.2398 76.2369 80.2398H91.3947C91.7862 80.2398 92.1029 79.9244 92.1029 79.5354C92.1029 79.1457 91.7858 78.8303 91.394 78.8303Z" fill="white"/>
<path d="M87.1812 62.0668H85.558V60.4523C85.558 60.18 85.3353 59.9592 85.0619 59.9592H82.5692C82.295 59.9592 82.0734 60.18 82.0734 60.4523V62.0668H80.4502C80.176 62.0668 79.9544 62.2876 79.9544 62.5599V65.0391C79.9544 65.3118 80.1764 65.5322 80.4502 65.5322H82.0734V67.147C82.0734 67.4193 82.2954 67.6401 82.5692 67.6401H85.0619C85.3353 67.6401 85.558 67.4193 85.558 67.147V65.5322H87.1812C87.455 65.5322 87.6778 65.3114 87.6778 65.0391V62.5599C87.6778 62.2876 87.455 62.0668 87.1812 62.0668ZM86.685 64.546H85.0885C84.801 64.546 84.5661 64.7789 84.5661 65.0652V66.6539H83.0657V65.0652C83.0657 64.7789 82.8315 64.546 82.5436 64.546H80.9467V63.0534H82.5436C82.8315 63.0534 83.0657 62.8208 83.0657 62.5345V60.9458H84.5661V62.5345C84.5661 62.8208 84.801 63.0534 85.0885 63.0534H86.685V64.546Z" fill="white"/>
</svg>
