<svg width="145" height="159" viewBox="0 0 145 159" fill="none" xmlns="http://www.w3.org/2000/svg">
<path d="M42.2102 155.179L46.0652 145.174H43.6352L40.8752 152.869L38.1002 145.174H35.6702L39.5402 155.179H42.2102ZM49.4105 155.359C51.8105 155.359 53.2505 153.619 53.2505 151.549C53.2505 149.494 51.8105 147.754 49.4105 147.754C47.0255 147.754 45.5855 149.494 45.5855 151.549C45.5855 153.619 47.0255 155.359 49.4105 155.359ZM49.4105 153.664C48.2255 153.664 47.5655 152.689 47.5655 151.549C47.5655 150.424 48.2255 149.449 49.4105 149.449C50.5955 149.449 51.2705 150.424 51.2705 151.549C51.2705 152.689 50.5955 153.664 49.4105 153.664ZM55.6088 147.154C56.2388 147.154 56.7488 146.644 56.7488 146.014C56.7488 145.384 56.2388 144.889 55.6088 144.889C54.9938 144.889 54.4688 145.384 54.4688 146.014C54.4688 146.644 54.9938 147.154 55.6088 147.154ZM56.5688 155.179V147.934H54.6638V155.179H56.5688ZM61.8328 155.359C63.3178 155.359 64.2178 154.714 64.6978 154.039L63.4528 152.884C63.1078 153.364 62.5828 153.664 61.9228 153.664C60.7678 153.664 59.9578 152.809 59.9578 151.549C59.9578 150.289 60.7678 149.449 61.9228 149.449C62.5828 149.449 63.1078 149.719 63.4528 150.229L64.6978 149.059C64.2178 148.399 63.3178 147.754 61.8328 147.754C59.5978 147.754 57.9928 149.329 57.9928 151.549C57.9928 153.784 59.5978 155.359 61.8328 155.359ZM69.3481 155.359C70.4731 155.359 71.6131 155.014 72.3331 154.354L71.4931 153.124C71.0281 153.574 70.1731 153.844 69.5581 153.844C68.3281 153.844 67.5931 153.079 67.4731 152.164H72.8581V151.744C72.8581 149.374 71.3881 147.754 69.2281 147.754C67.0231 147.754 65.4781 149.449 65.4781 151.549C65.4781 153.874 67.1431 155.359 69.3481 155.359ZM71.0131 150.874H67.4431C67.5331 150.154 68.0431 149.269 69.2281 149.269C70.4881 149.269 70.9681 150.184 71.0131 150.874ZM87.072 155.179V145.174H84.942V151.459L80.307 145.174H78.117V155.179H80.247V148.654L85.017 155.179H87.072ZM92.3598 155.359C94.7598 155.359 96.1998 153.619 96.1998 151.549C96.1998 149.494 94.7598 147.754 92.3598 147.754C89.9748 147.754 88.5348 149.494 88.5348 151.549C88.5348 153.619 89.9748 155.359 92.3598 155.359ZM92.3598 153.664C91.1748 153.664 90.5148 152.689 90.5148 151.549C90.5148 150.424 91.1748 149.449 92.3598 149.449C93.5448 149.449 94.2198 150.424 94.2198 151.549C94.2198 152.689 93.5448 153.664 92.3598 153.664ZM100.043 155.359C100.838 155.359 101.348 155.149 101.633 154.894L101.228 153.454C101.123 153.559 100.853 153.664 100.568 153.664C100.148 153.664 99.908 153.319 99.908 152.869V149.599H101.378V147.934H99.908V145.954H97.988V147.934H96.788V149.599H97.988V153.379C97.988 154.669 98.708 155.359 100.043 155.359ZM106.086 155.359C107.211 155.359 108.351 155.014 109.071 154.354L108.231 153.124C107.766 153.574 106.911 153.844 106.296 153.844C105.066 153.844 104.331 153.079 104.211 152.164H109.596V151.744C109.596 149.374 108.126 147.754 105.966 147.754C103.761 147.754 102.216 149.449 102.216 151.549C102.216 153.874 103.881 155.359 106.086 155.359ZM107.751 150.874H104.181C104.271 150.154 104.781 149.269 105.966 149.269C107.226 149.269 107.706 150.184 107.751 150.874Z" fill="white"/>
<path d="M48.2887 28.9596C61.5665 15.6818 83.0942 15.6818 96.372 28.9596L115.216 47.8033C128.493 61.0811 128.494 82.6087 115.216 95.8866L96.372 114.73C83.0942 128.008 61.5666 128.008 48.2887 114.73L29.445 95.8866C16.1672 82.6088 16.1672 61.0811 29.445 47.8033L48.2887 28.9596Z" fill="white"/>
<path d="M69.2319 35.5768C87.8011 32.7863 105.117 45.5775 107.907 64.1467L108.598 68.7466C111.389 87.3157 98.5976 104.631 80.0284 107.422L75.4285 108.113C56.8593 110.903 39.5439 98.1122 36.7534 79.543L36.0622 74.9431C33.2717 56.3739 46.0628 39.0585 64.632 36.268L69.2319 35.5768Z" fill="#0C81EB"/>
<path d="M79.4092 52.6912H66.2512C58.5972 52.6912 52.3622 59.4736 52.3622 67.8112C52.3622 74.896 56.8342 80.9872 63.1122 82.5856V92.1328C63.1122 92.4784 63.2842 92.7808 63.5852 92.9104C63.7142 92.9536 63.8002 92.9968 63.9292 92.9968C64.1442 92.9968 64.3162 92.9104 64.4882 92.7808L75.5822 82.9744H79.4092C87.0632 82.9744 93.2552 76.192 93.2552 67.8112C93.2552 59.4304 87.0632 52.6912 79.4092 52.6912ZM79.4092 81.2896H75.2382C75.0232 81.2896 74.8512 81.376 74.6792 81.5056L64.7892 90.2752V81.8944C64.7892 81.5056 64.4882 81.16 64.1012 81.0736C58.2962 79.9504 54.0392 74.3776 54.0392 67.8112C54.0392 60.424 59.5002 54.376 66.2512 54.376H79.4522C86.1602 54.376 91.6212 60.424 91.6212 67.8544C91.6212 75.2416 86.1602 81.2896 79.4092 81.2896Z" fill="white"/>
<path d="M61.3491 70.8782C61.1341 70.8782 61.0051 70.7054 61.0051 70.5326V66.515C61.0051 66.299 61.1771 66.1694 61.3491 66.1694C61.5641 66.1694 61.6931 66.3422 61.6931 66.515V70.5326C61.7361 70.7054 61.5641 70.8782 61.3491 70.8782Z" fill="white"/>
<path d="M68.4011 70.8782C68.1861 70.8782 68.0571 70.7054 68.0571 70.5326V66.515C68.0571 66.299 68.2291 66.1694 68.4011 66.1694C68.5731 66.1694 68.7451 66.3422 68.7451 66.515V70.5326C68.7881 70.7054 68.6161 70.8782 68.4011 70.8782Z" fill="white"/>
<path d="M75.4961 71.5695C75.2811 71.5695 75.1521 71.3967 75.1521 71.2239V65.7807C75.1521 65.5647 75.3241 65.4351 75.4961 65.4351C75.7111 65.4351 75.8401 65.6079 75.8401 65.7807V71.2239C75.8401 71.3967 75.6681 71.5695 75.4961 71.5695Z" fill="white"/>
<path d="M77.2591 70.3168C77.0441 70.3168 76.9151 70.144 76.9151 69.9712V67.0336C76.9151 66.8176 77.0871 66.688 77.2591 66.688C77.4741 66.688 77.6031 66.8608 77.6031 67.0336V69.9712C77.6031 70.1872 77.4311 70.3168 77.2591 70.3168Z" fill="white"/>
<path d="M84.3111 70.3168C84.0961 70.3168 83.9671 70.144 83.9671 69.9712V67.0336C83.9671 66.8176 84.1391 66.688 84.3111 66.688C84.5261 66.688 84.6551 66.8608 84.6551 67.0336V69.9712C84.6551 70.1872 84.4831 70.3168 84.3111 70.3168Z" fill="white"/>
<path d="M63.1121 72.2175C62.8971 72.2175 62.7681 72.0447 62.7681 71.8719V65.0895C62.7681 64.8735 62.9401 64.7439 63.1121 64.7439C63.2841 64.7439 63.4561 64.9167 63.4561 65.0895V71.8719C63.4991 72.0879 63.3271 72.2175 63.1121 72.2175Z" fill="white"/>
<path d="M70.1641 72.2175C69.9491 72.2175 69.8201 72.0447 69.8201 71.8719V65.0895C69.8201 64.8735 69.9921 64.7439 70.1641 64.7439C70.3791 64.7439 70.5081 64.9167 70.5081 65.0895V71.8719C70.5511 72.0879 70.3791 72.2175 70.1641 72.2175Z" fill="white"/>
<path d="M71.927 73.3838C71.712 73.3838 71.583 73.211 71.583 73.0382V63.9662C71.583 63.7502 71.755 63.6206 71.927 63.6206C72.142 63.6206 72.271 63.7934 72.271 63.9662V73.0382C72.314 73.2542 72.142 73.3838 71.927 73.3838Z" fill="white"/>
<path d="M80.7851 72.2175C80.5701 72.2175 80.4411 72.0447 80.4411 71.8719V65.0895C80.4411 64.8735 80.6131 64.7439 80.7851 64.7439C81.0001 64.7439 81.1291 64.9167 81.1291 65.0895V71.8719C81.1291 72.0879 80.9571 72.2175 80.7851 72.2175Z" fill="white"/>
<path d="M82.5481 73.3838C82.3331 73.3838 82.2041 73.211 82.2041 73.0382V63.9662C82.2041 63.7502 82.3761 63.6206 82.5481 63.6206C82.7201 63.6206 82.8921 63.7934 82.8921 63.9662V73.0382C82.8921 73.2542 82.7201 73.3838 82.5481 73.3838Z" fill="white"/>
<path d="M66.6382 73.0815C66.4232 73.0815 66.2942 72.9087 66.2942 72.7359V64.2687C66.2942 64.0527 66.4662 63.9231 66.6382 63.9231C66.8532 63.9231 66.9822 64.0959 66.9822 64.2687V72.7359C67.0252 72.9087 66.8532 73.0815 66.6382 73.0815Z" fill="white"/>
<path d="M64.875 75.6303C64.66 75.6303 64.531 75.4575 64.531 75.2847V61.7199C64.531 61.5039 64.703 61.3743 64.875 61.3743C65.09 61.3743 65.219 61.5471 65.219 61.7199V75.2415C65.262 75.4575 65.09 75.6303 64.875 75.6303Z" fill="white"/>
<path d="M73.7331 74.9822C73.5181 74.9822 73.3891 74.8094 73.3891 74.6366V62.3678C73.3891 62.1518 73.5611 62.0222 73.7331 62.0222C73.9481 62.0222 74.0771 62.195 74.0771 62.3678V74.6366C74.0771 74.8094 73.9051 74.9822 73.7331 74.9822Z" fill="white"/>
<path d="M79.0221 74.9822C78.8071 74.9822 78.6781 74.8094 78.6781 74.6366V62.3678C78.6781 62.1518 78.8501 62.0222 79.0221 62.0222C79.1941 62.0222 79.3661 62.195 79.3661 62.3678V74.6366C79.3661 74.8094 79.1941 74.9822 79.0221 74.9822Z" fill="white"/>
<path d="M84.0531 68.7615H61.5641C61.3491 68.7615 61.2201 68.5887 61.2201 68.4159C61.2201 68.2431 61.3921 68.0703 61.5641 68.0703H84.0531C84.2681 68.0703 84.3971 68.2431 84.3971 68.4159C84.3971 68.5887 84.2681 68.7615 84.0531 68.7615Z" fill="white"/>
</svg>
